<?xml version="1.0" encoding="utf-8"?>
<!DOCTYPE svg PUBLIC "-//W3C//DTD SVG 1.0//EN" "http://www.w3.org/TR/2001/REC-SVG-20010904/DTD/svg10.dtd">
<svg version="1.0" xmlns="http://www.w3.org/2000/svg" width="200px" height="200px" viewBox="0 0 200 200" preserveAspectRatio="xMidYMid meet">
 <g fill="#ffffff">
  <path d="M0 100 l0 -100 100 0 100 0 0 100 0 100 -100 0 -100 0 0 -100z m153.8 78.3 c-1 -0.2 -2.6 -0.2 -3.5 0 -1 0.3 -0.2 0.5 1.7 0.5 1.9 0 2.7 -0.2 1.8 -0.5z m22.5 -15 c-1.3 -0.2 -3.3 -0.2 -4.5 0 -1.3 0.2 -0.3 0.4 2.2 0.4 2.5 0 3.5 -0.2 2.3 -0.4z m-129.3 -1.3 c-2 -1.3 -7 -1.3 -7 0 0 0.6 1.9 1 4.3 1 3.1 0 3.8 -0.3 2.7 -1z m80 0 c-2 -1.3 -7 -1.3 -7 0 0 0.6 1.9 1 4.3 1 3.1 0 3.8 -0.3 2.7 -1z m-34.2 -56.8 l0.2 -29.3 -2.4 -2.4 -2.5 -2.5 -27.9 0 c-26.8 0 -28 0.1 -29.7 2 -1.8 2 -1.8 2.3 0.3 9.8 6.3 21.8 18.5 37 37.2 46.3 7 3.4 16 5.9 21 5.6 l3.5 -0.2 0.3 -29.3z m33.6 26.8 c21 -7.2 36.2 -23.3 43.4 -46 3.2 -10.2 3.2 -11 1.1 -13.1 -1.8 -1.8 -3.6 -1.9 -29.3 -1.9 -15.1 0 -28.2 0.3 -29.1 0.6 -4 1.6 -4.5 5.1 -4.5 33.7 0 20.5 0.3 27.6 1.3 28.6 1.5 1.6 9.7 0.7 17.1 -1.9z m-59.1 -77.6 c9.5 -3.2 17.8 -13.8 17.9 -22.8 0.2 -11.6 -12.6 -24.6 -24.2 -24.6 -10.4 0 -20.9 8.9 -24.1 20.5 -2.7 9.8 7.1 23.9 19.1 27.6 3.9 1.2 6.3 1 11.3 -0.7z m80.9 -0.1 c7 -2.7 11.5 -6.9 14.9 -13.9 2.7 -5.4 3.1 -7.1 2.5 -11.1 -1.6 -11.5 -13.1 -22.2 -24.1 -22.3 -5.1 0 -13.1 3.8 -17.2 8.1 -4.2 4.4 -7.3 11.4 -7.3 16.5 0 8.3 7.3 18.4 16.4 22.5 5.1 2.3 9.3 2.4 14.8 0.2z"/>
 </g>
 <g fill="#f7a204">
  <path d="M167 197.3 c-0.1 -0.5 0 -8.4 0 -17.7 0.1 -13.9 -0.2 -17.1 -1.5 -18.6 -1.4 -1.6 -1 -1.7 6.2 -1.7 7.1 -0.1 7.9 0.1 10.5 2.7 3 3.1 3.7 7.4 1.7 11.3 -2 3.8 -6.1 7.6 -9 8.2 -2.9 0.7 -2.9 0.7 -2.9 8.6 0 7.8 0 7.9 -2.5 7.9 -1.4 0 -2.5 -0.3 -2.5 -0.7z m8.8 -19.8 c3.9 -3.2 4.6 -6.1 2.1 -8.6 -2.1 -2.1 -5.8 -2.6 -6 -0.6 -0.5 4.6 -0.3 11.7 0.3 11.7 0.3 0 2 -1.1 3.6 -2.5z"/>
  <path d="M45 185.7 c0 -1 0.7 -2.9 1.6 -4.3 1 -1.5 1.7 -4.7 1.8 -8.1 0.1 -5.4 -0.1 -5.8 -2.7 -6.7 -1.9 -0.7 -3.1 -0.6 -3.8 0.1 -1.2 1.2 -1.4 7.7 -0.4 12.3 0.7 3.1 -0.8 4.2 -4 3 -1.9 -0.7 -2 -1.4 -1.4 -10.1 0.4 -6.9 0.2 -9.8 -0.8 -11 -1.9 -2.3 -0.7 -2.9 6.3 -2.9 8 0 9.1 0.5 11.4 5.1 2.5 4.9 2.5 8.2 -0.1 13.3 -2.9 5.8 -7.8 11.6 -7.9 9.3z"/>
  <path d="M125 185.3 c0 -0.5 1.1 -3.3 2.5 -6.1 2.9 -6.1 3.1 -7.9 0.9 -11 -1.1 -1.6 -2.4 -2.2 -4.2 -2 -2.7 0.3 -2.7 0.4 -3 8.6 -0.3 7.9 -0.4 8.3 -2.5 8 -2.1 -0.3 -2.2 -0.7 -2.2 -12.3 l0 -12 4.9 -0.7 c6.3 -0.9 10.2 1 12.2 5.9 2 4.7 1.1 9.7 -2.9 16.4 -2.9 4.8 -5.7 7.3 -5.7 5.2z"/>
  <path d="M18 182 c-1.2 -0.8 -1.2 -1.1 0.3 -2.8 1.4 -1.5 1.7 -4 1.7 -15 0 -8.5 -0.4 -13.9 -1.2 -15.1 -1.6 -2.6 0.5 -5.1 4.2 -5.1 l2.7 0 0.5 18.3 c0.4 11.6 0.2 18.7 -0.4 19.5 -1.2 1.4 -5.7 1.6 -7.8 0.2z"/>
  <path d="M62.7 182.3 c-0.4 -0.3 -0.7 -4.6 -0.7 -9.5 0 -8.3 -0.1 -8.8 -2.1 -8.8 -1.1 0 -1.9 -0.3 -1.7 -0.7 2.9 -5.6 3.9 -8.9 3.1 -10.3 -1.2 -2.1 -0.5 -4.7 1.5 -5.4 0.9 -0.3 2.3 -0.9 3 -1.2 0.9 -0.4 1.2 1 1.2 5.5 0 4.8 0.3 6.1 1.5 6.1 2.3 0 1.9 4.7 -0.5 5.5 -2.3 0.7 -2.4 2.3 -1 10.9 0.7 4.2 0.6 6.3 -0.1 7.3 -1.2 1.4 -3.2 1.7 -4.2 0.6z"/>
  <path d="M83.3 181.8 c-4.9 -1.3 -7.3 -5.1 -7.3 -11.4 0 -4.4 0.5 -5.9 2.8 -8.4 1.7 -1.9 4 -3.3 6.3 -3.6 3.2 -0.5 4.2 -0.2 7.8 3.1 2.2 2.1 4.1 4.2 4.1 4.9 0 0.6 -3.2 2.7 -7.1 4.6 -8 4 -9.5 5.3 -7.7 6.7 2.7 2.1 4.8 2.1 8.4 0.2 2.1 -1 4 -1.9 4.1 -1.9 0.9 0 0.1 4 -0.8 4.6 -2.3 1.4 -7.5 2 -10.6 1.2z m1.8 -11 c4.4 -2.5 4.6 -4.1 0.5 -4.6 -3.2 -0.4 -6.6 2.2 -6.6 5 0 2.4 1.4 2.3 6.1 -0.4z"/>
  <path d="M102.6 178.4 c-0.8 -5.8 -0.8 -19.4 0 -19.4 0.3 0 1.5 0.5 2.6 1.1 1.5 0.8 2.7 0.8 4.4 -0.2 2.8 -1.5 2.9 -1.4 3.7 2.9 0.6 3 0.4 3.3 -2.4 3.9 l-3 0.6 0.2 6.7 c0.2 7.4 -0.3 9 -3 9 -1.4 0 -2 -1.1 -2.5 -4.6z"/>
  <path d="M149.8 182.1 c-2.6 -0.4 -6 -1.6 -7.5 -2.8 -3.8 -2.8 -3.7 -8.8 0.1 -16.6 4.1 -8.5 6.6 -7.3 2.7 1.3 -2.3 5.1 -1.7 7.6 2.1 9.6 4.8 2.5 5.7 1.4 6 -7.6 0.2 -4.4 0.8 -8.1 1.3 -8.1 2.2 -0.3 3.5 4.9 3.5 14.9 0 11.4 0.8 10.5 -8.2 9.3z"/>
  <path d="M106.7 137.2 c-1.5 -1.6 -1.7 -5.4 -1.7 -32.1 0 -31.6 0.4 -34.9 4.5 -36.5 0.9 -0.3 15.4 -0.6 32.1 -0.6 29.7 0 30.5 0.1 32.5 2.1 1.8 1.8 2.1 2.9 1.5 7.3 -0.3 2.8 -1.6 8.3 -2.9 12.1 -8 23.4 -23.3 39.2 -44.2 45.8 -3.9 1.2 -17.1 3.7 -19.8 3.7 -0.2 0 -1.1 -0.8 -2 -1.8z"/>
 </g>
 <g fill="#f5342d">
  <path d="M88 138.4 c-9.1 -1.4 -15.1 -2.9 -19.5 -4.7 -20.4 -8.5 -34.2 -25.1 -41 -49.1 -2.6 -9 -2.5 -11.7 0.3 -14.8 1.4 -1.6 4.2 -1.8 32.4 -1.8 l30.9 0 2.4 2.5 2.5 2.4 0 32 c0 30.6 -0.1 32.1 -1.9 33.1 -1.1 0.5 -2.3 0.9 -2.8 0.9 -0.4 -0.1 -1.9 -0.3 -3.3 -0.5z"/>
 </g>
 <g fill="#e477a1">
  <path d="M129.2 56.4 c-21.2 -10.6 -20.5 -40.8 1.3 -50.5 12.7 -5.7 27.9 -0.6 35.2 11.8 2 3.4 2.7 6.3 3.1 11.9 0.4 6.8 0.2 8 -2.7 13.9 -5.1 10.3 -13.6 15.5 -25.4 15.5 -4.8 0 -7.6 -0.6 -11.5 -2.6z"/>
 </g>
 <g fill="#0756cc">
  <path d="M53 58.1 c-5.1 -1.6 -8.9 -4.1 -12.9 -8.7 -12.6 -14.3 -7.3 -36.5 10.6 -44 5.6 -2.4 15.7 -2.2 21.4 0.5 10.6 5 16.4 14.1 16.3 25.6 -0.1 15.7 -12.2 27.7 -27.8 27.4 -2.8 0 -6.2 -0.4 -7.6 -0.8z"/>
 </g>
</svg>